# xmcd
#
# Track frame offsets:
# 150
# 31979
# 48444
# 72295
# 87142
# 103260
# 121952
# 154414
# 170072
# 185753
# 221294
# 234198
# 247736
# 261860
# 277719
# 290248
#
# Disc length: 4088 seconds
#
#
# Revision: 1
# Processed by: cddbd v1.5.2PL0 Copyright (c) Steve Scherf et al.
# Submitted via: FreeRIP 2.70 
#
DISCID=e30ff610
DTITLE=Totally 70's - Totally 70's - Disc 1
DYEAR=1900
DGENRE=Ingles
TTITLE0=Dont't let me be misunderstood - Santa Esmeralda
TTITLE1=Nice and slow - Jesse Green
TTITLE2=Boogie nights - Heartwave
TTITLE3=Rock your baby - George Mc Crae
TTITLE4=Ring my bell - Anita Ward
TTITLE5=Knock on wood - Amii Stewart
TTITLE6=Papa was a rolling stone - The Temptations
TTITLE7=Spirit in the sky - Doctor and The Medics
TTITLE8=Ain't gonna bump no more - Joe Tex
TTITLE9=Get up and boogie - Silver Convention
TTITLE10=It's so nice to be with you - Gallery
TTITLE11=Black is black - Los Bravos
TTITLE12=I just can't help believing - B.J. Tomas
TTITLE13=Come and get your love - Redbone
TTITLE14=Here comes that rainy day - The Fortunes
TTITLE15=Mamy blue - Pop Tops
EXTD=
EXTT0=
EXTT1=
EXTT2=
EXTT3=
EXTT4=
EXTT5=
EXTT6=
EXTT7=
EXTT8=
EXTT9=
EXTT10=
EXTT11=
EXTT12=
EXTT13=
EXTT14=
EXTT15=
PLAYORDER=
